<svg width="15" height="15" viewBox="0 0 15 15" fill="none" xmlns="http://www.w3.org/2000/svg">
<g clip-path="url(#clip0_1324_986)">
<path d="M7.42973 3.3302L10.637 3.3302C10.9463 3.3302 11.2429 3.45308 11.4617 3.67179C11.6804 3.89051 11.8033 4.18716 11.8033 4.49648V12.6604C11.8033 12.9697 11.6804 13.2664 11.4617 13.4851C11.2429 13.7038 10.9463 13.8267 10.637 13.8267H3.63933C3.33001 13.8267 3.03337 13.7038 2.81465 13.4851C2.59593 13.2664 2.47305 12.9697 2.47305 12.6604V8.28687" stroke="white" stroke-width="1.16628" stroke-linecap="round" stroke-linejoin="round"/>
<path d="M4.22249 8.57847C6.15484 8.57847 7.72132 7.01199 7.72132 5.07964C7.72132 3.14729 6.15484 1.58081 4.22249 1.58081C2.29014 1.58081 0.723663 3.14729 0.723663 5.07964C0.723663 7.01199 2.29014 8.57847 4.22249 8.57847Z" stroke="white" stroke-width="1.16628" stroke-linecap="round" stroke-linejoin="round"/>
<path d="M4.22247 3.3302V4.93383L5.09718 5.37118" stroke="white" stroke-width="1.16628" stroke-linecap="round" stroke-linejoin="round"/>
<path d="M9.47072 8.57849L8.30444 8.57849" stroke="white" stroke-width="1.16628" stroke-linecap="round" stroke-linejoin="round"/>
<path d="M9.47071 6.24585L8.88757 6.24585" stroke="white" stroke-width="1.16628" stroke-linecap="round" stroke-linejoin="round"/>
<path d="M9.47074 10.911H4.80563" stroke="white" stroke-width="1.16628" stroke-linecap="round" stroke-linejoin="round"/>
</g>
<defs>
<clipPath id="clip0_1324_986">
<rect width="13.9953" height="13.9953" fill="white" transform="translate(0.140503 0.997681)"/>
</clipPath>
</defs>
</svg>
